<svg version="1.1" xmlns="http://www.w3.org/2000/svg" viewBox="-2785.7215647145426 -1085.4400512695313 7360.953566209904 2535.4241577148437"><desc>Created with Snap</desc><defs></defs><g><g transform="matrix(22.1535,0,0,22.1535,-2478.5216,-911.1613)"><title>artifact</title><desc>Created with Sketch.</desc><g stroke="none" stroke-width="1" fill="none" fill-rule="evenodd"><g transform="translate(0.000000, 6.000000)" fill="#000000" fill-rule="nonzero"><polygon points="32.7402222 56.7022222 0 0 30.3677778 0 43.2977778 46.2633333" fill="#6daedb" style=""></polygon><polygon points="37.7224444 12.4555556 34.5195556 0 100 0 85.2906667 25.3855556" fill="#6daedb" style=""></polygon><polygon points="46.5005556 42.586 39.5017778 17.2004444 65.0058889 23.8434444" fill="#6daedb" style=""></polygon><polygon points="69.7508889 24.911 35.1126667 60.1423333 50.2965556 86.7141111 83.5112222 28.5883333" fill="#6daedb" style=""></polygon></g></g><defs></defs></g><g><g transform="matrix(1.024,0,0,-1.024,0,0)"><path d="M240 760Q331 760 382 703Q433 647 433 546L433 204Q433 99 383 44Q334 -10 240 -10Q145 -10 94 45Q43 101 43 204L43 546Q43 650 93 705Q144 760 240 760ZM240 30Q276 30 299 57Q323 84 323 126L323 624Q323 666 299 693Q276 720 240 720Q205 720 181 692Q157 665 157 624L157 126Q157 83 180 56Q203 30 240 30ZM564 80L564 460Q564 483 550 493Q536 503 504 503L504 540L672 540L887 194L887 460Q887 484 874 493Q861 503 827 503L827 540L991 540L991 503Q957 503 944 493Q931 484 931 460L931 0L886 0L608 450L608 80Q608 56 621 46Q634 37 668 37L668 0L504 0L504 37Q538 37 551 46Q564 56 564 80ZM1249 550Q1285 550 1301 547Q1317 544 1324 560L1358 560L1399 399L1365 390Q1347 437 1331 463Q1315 489 1295 499Q1276 510 1248 510Q1211 510 1186 479Q1161 449 1161 404L1161 131Q1161 85 1187 56Q1214 27 1257 27Q1303 27 1331 71Q1360 115 1360 184L1360 200L1401 200L1401 199Q1401 90 1360 37Q1320 -15 1236 -15Q1150 -15 1100 42Q1051 99 1051 199L1051 336Q1051 550 1249 550ZM1449 0L1449 37Q1481 37 1495 47Q1509 57 1509 80L1509 460Q1509 483 1495 493Q1481 503 1449 503L1449 540L1745 540Q1771 540 1782 544Q1793 549 1794 559L1827 559L1868 397L1835 388Q1817 436 1800 460Q1784 485 1758 493Q1733 501 1689 501L1618 501L1618 286L1690 286Q1729 286 1729 338L1761 338L1761 186L1729 186Q1729 247 1690 247L1618 247L1618 39L1722 39Q1767 39 1791 49Q1816 59 1827 87Q1839 116 1845 171L1878 171L1878 -21L1844 -21Q1840 -9 1825 -5Q1810 0 1775 0L1449 0ZM2116 0L2116 37Q2148 37 2162 47Q2176 57 2176 80L2176 670Q2176 693 2162 703Q2148 713 2116 713L2116 750L2348 750L2348 713Q2316 713 2302 703Q2288 693 2288 670L2288 80Q2288 57 2302 47Q2316 37 2348 37L2348 0L2116 0ZM2462 80L2462 460Q2462 483 2448 493Q2434 503 2402 503L2402 540L2570 540L2785 194L2785 460Q2785 484 2772 493Q2759 503 2725 503L2725 540L2889 540L2889 503Q2855 503 2842 493Q2829 484 2829 460L2829 0L2784 0L2506 450L2506 80Q2506 56 2519 46Q2532 37 2566 37L2566 0L2402 0L2402 37Q2436 37 2449 46Q2462 56 2462 80Z" fill="#173753" style=""></path></g></g><g transform="matrix(1,0,0,1,44.032,1111.0401)"><g transform="matrix(1.024,0,0,-1.024,0,0)"><path d="M128 179L107 81Q103 60 118 48Q134 37 167 37L167 0L0 0L0 37Q29 37 43 47Q57 57 62 81L212 764L260 764L415 79Q420 54 432 45Q445 37 475 37L475 0L243 0L243 37Q279 37 293 46Q308 56 303 78L282 179L128 179ZM207 538L137 219L273 219L207 538ZM700 0L700 37Q732 37 746 47Q760 57 760 80L760 670Q760 693 746 703Q732 713 700 713L700 750L932 750L932 713Q900 713 886 703Q872 693 872 670L872 40L948 40Q993 40 1017 50Q1042 60 1054 88Q1066 116 1072 171L1107 171L1107 -31L1070 -31Q1066 -14 1050 -7Q1035 0 1001 0L700 0ZM1143 0L1143 37Q1175 37 1189 47Q1203 57 1203 80L1203 460Q1203 483 1189 493Q1175 503 1143 503L1143 540L1373 540L1373 503Q1341 503 1327 493Q1313 483 1313 460L1313 80Q1313 57 1327 47Q1341 37 1373 37L1373 0L1143 0ZM1421 0L1421 37Q1453 37 1467 47Q1481 57 1481 80L1481 460Q1481 483 1467 493Q1453 503 1421 503L1421 540L1717 540Q1743 540 1754 544Q1765 549 1766 559L1799 559L1840 397L1807 388Q1789 436 1772 460Q1756 485 1730 493Q1705 501 1661 501L1591 501L1591 267L1662 267Q1701 267 1701 319L1733 319L1733 167L1701 167Q1701 228 1662 228L1591 228L1591 80Q1591 57 1605 47Q1619 37 1651 37L1651 0L1421 0ZM1878 0L1878 37Q1910 37 1924 47Q1938 57 1938 80L1938 460Q1938 483 1924 493Q1910 503 1878 503L1878 540L2174 540Q2200 540 2211 544Q2222 549 2223 559L2256 559L2297 397L2264 388Q2246 436 2229 460Q2213 485 2187 493Q2162 501 2118 501L2047 501L2047 286L2119 286Q2158 286 2158 338L2190 338L2190 186L2158 186Q2158 247 2119 247L2047 247L2047 39L2151 39Q2196 39 2220 49Q2245 59 2256 87Q2268 116 2274 171L2307 171L2307 -21L2273 -21Q2269 -9 2254 -5Q2239 0 2204 0L1878 0ZM2427 0L2427 37Q2459 37 2473 47Q2487 57 2487 80L2487 501L2470 501Q2438 501 2419 491Q2400 481 2386 452Q2373 423 2357 365L2323 374L2357 566L2388 566Q2391 540 2434 540L2652 540Q2695 540 2698 566L2729 566L2763 374L2729 365Q2713 423 2699 452Q2686 481 2667 491Q2648 501 2616 501L2597 501L2597 80Q2597 57 2611 47Q2625 37 2657 37L2657 0L2427 0ZM2787 0L2787 37Q2819 37 2833 47Q2847 57 2847 80L2847 460Q2847 483 2833 493Q2819 503 2787 503L2787 540L3017 540L3017 503Q2985 503 2971 493Q2957 483 2957 460L2957 80Q2957 57 2971 47Q2985 37 3017 37L3017 0L2787 0ZM3125 80L3125 460Q3125 483 3111 493Q3097 503 3065 503L3065 540L3242 540L3363 174L3466 540L3648 540L3648 506Q3614 506 3601 496Q3588 487 3588 463L3588 80Q3588 56 3601 46Q3614 37 3648 37L3648 0L3426 0L3426 37Q3460 37 3473 46Q3486 56 3486 80L3486 457L3360 0L3319 0L3169 458L3169 80Q3169 56 3182 46Q3195 37 3229 37L3229 0L3065 0L3065 37Q3099 37 3112 46Q3125 56 3125 80ZM3696 0L3696 37Q3728 37 3742 47Q3756 57 3756 80L3756 460Q3756 483 3742 493Q3728 503 3696 503L3696 540L3992 540Q4018 540 4029 544Q4040 549 4041 559L4074 559L4115 397L4082 388Q4064 436 4047 460Q4031 485 4005 493Q3980 501 3936 501L3865 501L3865 286L3937 286Q3976 286 3976 338L4008 338L4008 186L3976 186Q3976 247 3937 247L3865 247L3865 39L3969 39Q4014 39 4038 49Q4063 59 4074 87Q4086 116 4092 171L4125 171L4125 -21L4091 -21Q4087 -9 4072 -5Q4057 0 4022 0L3696 0Z" fill="#173753" style=""></path></g></g></g></svg>